<svg width="22" height="26" viewBox="0 0 22 26" fill="none" xmlns="http://www.w3.org/2000/svg">
<path d="M18.6266 3.2093C18.6266 3.17829 18.6266 3.2093 18.6266 3.2093C14.3673 -1.06977 7.45371 -1.06977 3.19445 3.2093C-1.06482 7.48837 -1.06482 14.4651 3.19445 18.7442L10.0463 25.6279C10.2932 25.876 10.6019 26 10.9105 26C11.2191 26 11.5278 25.876 11.7747 25.6279L18.6266 18.7132C22.8858 14.4341 22.8858 7.48837 18.6266 3.2093Z" fill="#F69951"/>
<path d="M11.0663 15.7581C8.27151 15.7581 6.00075 13.4623 6.00075 10.6368C6.00075 7.81134 8.27151 5.51562 11.0663 5.51562C13.8611 5.51562 16.1318 7.81134 16.1318 10.6368C16.1318 13.4623 13.8611 15.7581 11.0663 15.7581Z" fill="white"/>
</svg>
