<svg width="21" height="20" viewBox="0 0 21 20" fill="none" xmlns="http://www.w3.org/2000/svg">
<path id="Vector" d="M20.1665 14.9201V17.9201C20.1676 18.1986 20.1109 18.4743 20.0001 18.7294C19.8893 18.9846 19.7267 19.2137 19.5229 19.402C19.3191 19.5902 19.0784 19.7336 18.8164 19.8228C18.5543 19.912 18.2766 19.9452 18.0011 19.9201C14.9447 19.5857 12.0087 18.5342 9.42917 16.8501C7.02925 15.3148 4.99454 13.2663 3.46952 10.8501C1.79087 8.2413 0.746207 5.27109 0.420171 2.1801C0.39535 1.90356 0.427993 1.62486 0.516023 1.36172C0.604052 1.09859 0.745539 0.856786 0.931476 0.651718C1.11741 0.44665 1.34372 0.282806 1.596 0.170619C1.84828 0.0584315 2.121 0.000358432 2.39679 9.69523e-05H5.37661C5.85865 -0.00467949 6.32598 0.167176 6.69147 0.48363C7.05697 0.800084 7.2957 1.23954 7.36316 1.7201C7.48893 2.68016 7.72218 3.62282 8.05845 4.5301C8.19209 4.88802 8.22101 5.27701 8.1418 5.65098C8.06258 6.02494 7.87853 6.36821 7.61148 6.6401L6.35002 7.9101C7.764 10.4136 9.82296 12.4865 12.3097 13.9101L13.5711 12.6401C13.8412 12.3712 14.1821 12.1859 14.5536 12.1062C14.925 12.0264 15.3114 12.0556 15.6669 12.1901C16.5681 12.5286 17.5044 12.7635 18.458 12.8901C18.9405 12.9586 19.3812 13.2033 19.6962 13.5776C20.0112 13.9519 20.1786 14.4297 20.1665 14.9201Z" fill="#F69951"/>
</svg>
